<?xml version="1.0" encoding="UTF-8" standalone="no"?>
<svg
   xmlns:dc="http://purl.org/dc/elements/1.1/"
   xmlns:cc="http://creativecommons.org/ns#"
   xmlns:rdf="http://www.w3.org/1999/02/22-rdf-syntax-ns#"
   xmlns:svg="http://www.w3.org/2000/svg"
   xmlns="http://www.w3.org/2000/svg"
   id="svg903"
   version="1.1"
   viewBox="0 0 8.4666665 8.4666669"
   height="32"
   width="32">
  <defs
     id="defs897" />
  <metadata
     id="metadata900">
    <rdf:RDF>
      <cc:Work
         rdf:about="">
        <dc:format>image/svg+xml</dc:format>
        <dc:type
           rdf:resource="http://purl.org/dc/dcmitype/StillImage" />
        <dc:title></dc:title>
      </cc:Work>
    </rdf:RDF>
  </metadata>
  <g
     transform="translate(0,-288.53332)"
     id="layer1">
    <path
       id="rect5505-67"
       d="m 1.190625,289.0625 c -0.36644791,0 -0.66145833,0.29501 -0.66145833,0.66146 v 6.08542 c 0,0.36644 0.29501042,0.66145 0.66145833,0.66145 h 6.0854167 c 0.3664479,0 0.6614583,-0.29501 0.6614583,-0.66145 v -6.08542 c 0,-0.36645 -0.2950104,-0.66146 -0.6614583,-0.66146 z m 0,0.26458 h 6.0854167 c 0.2198687,0 0.396875,0.17701 0.396875,0.39688 v 6.08542 c 0,0.21986 -0.1770063,0.39687 -0.396875,0.39687 H 1.190625 c -0.21986875,0 -0.396875,-0.17701 -0.396875,-0.39687 v -6.08542 c 0,-0.21987 0.17700625,-0.39688 0.396875,-0.39688 z"
       style="color:#000000;display:inline;overflow:visible;visibility:visible;opacity:1;vector-effect:none;fill:#555761;fill-opacity:1;fill-rule:nonzero;stroke:none;stroke-width:0.26458332;stroke-linecap:butt;stroke-linejoin:miter;stroke-miterlimit:4;stroke-dasharray:none;stroke-dashoffset:0;stroke-opacity:1;marker:none;paint-order:normal;enable-background:accumulate" />
    <rect
       width="6.8791666"
       height="6.8791666"
       rx="0.39687499"
       ry="0.39687499"
       x="0.79374999"
       y="289.32709"
       id="rect5505"
       style="color:#000000;display:inline;overflow:visible;visibility:visible;opacity:0.1;vector-effect:none;fill:#555761;fill-opacity:1;fill-rule:nonzero;stroke:none;stroke-width:0.26458332;stroke-linecap:round;stroke-linejoin:round;stroke-miterlimit:4;stroke-dasharray:none;stroke-dashoffset:0;stroke-opacity:1;marker:none;paint-order:normal;enable-background:accumulate" />
  </g>
</svg>
