<?xml version="1.0" encoding="UTF-8" standalone="no"?>
<svg
   xmlns:dc="http://purl.org/dc/elements/1.1/"
   xmlns:cc="http://creativecommons.org/ns#"
   xmlns:rdf="http://www.w3.org/1999/02/22-rdf-syntax-ns#"
   xmlns:svg="http://www.w3.org/2000/svg"
   xmlns="http://www.w3.org/2000/svg"
   version="1.1"
   width="48"
   height="48"
   id="svg4405">
  <defs
     id="defs4407" />
  <metadata
     id="metadata4410">
    <rdf:RDF>
      <cc:Work
         rdf:about="">
        <dc:format>image/svg+xml</dc:format>
        <dc:type
           rdf:resource="http://purl.org/dc/dcmitype/StillImage" />
        <dc:title></dc:title>
      </cc:Work>
    </rdf:RDF>
  </metadata>
  <rect
     width="38"
     height="38"
     rx="2.5"
     ry="2.5"
     x="5.0000081"
     y="6"
     id="rect5505"
     style="color:#000000;display:inline;overflow:visible;visibility:visible;opacity:0.1;vector-effect:none;fill:#555761;fill-opacity:1;fill-rule:nonzero;stroke:none;stroke-width:0.99999988;stroke-linecap:round;stroke-linejoin:round;stroke-miterlimit:4;stroke-dasharray:none;stroke-dashoffset:0;stroke-opacity:1;marker:none;paint-order:normal;enable-background:accumulate;font-variant-east_asian:normal" />
  <path
     id="rect860"
     d="M 7.5 5 C 5.561 5 4 6.561 4 8.5 L 4 41.5 C 4 43.439 5.561 45 7.5 45 L 40.5 45 C 42.439 45 44 43.439 44 41.5 L 44 8.5 C 44 6.561 42.439 5 40.5 5 L 7.5 5 z M 7.5 6 L 40.5 6 C 41.885 6 43 7.115 43 8.5 L 43 41.5 C 43 42.885 41.885 44 40.5 44 L 7.5 44 C 6.115 44 5 42.885 5 41.5 L 5 8.5 C 5 7.115 6.115 6 7.5 6 z "
     style="opacity:1;vector-effect:none;fill:#555761;fill-opacity:1;stroke:none;stroke-width:0.99999994;stroke-linecap:butt;stroke-linejoin:miter;stroke-miterlimit:4;stroke-dasharray:none;stroke-dashoffset:0;stroke-opacity:1;marker:none;paint-order:normal;font-variant-east_asian:normal" />
</svg>
