<?xml version="1.0" encoding="UTF-8" standalone="no"?>
<svg
   xmlns:dc="http://purl.org/dc/elements/1.1/"
   xmlns:cc="http://creativecommons.org/ns#"
   xmlns:rdf="http://www.w3.org/1999/02/22-rdf-syntax-ns#"
   xmlns:svg="http://www.w3.org/2000/svg"
   xmlns="http://www.w3.org/2000/svg"
   id="svg909"
   version="1.1"
   viewBox="0 0 16.933333 16.933333"
   height="64"
   width="64">
  <defs
     id="defs903" />
  <metadata
     id="metadata906">
    <rdf:RDF>
      <cc:Work
         rdf:about="">
        <dc:format>image/svg+xml</dc:format>
        <dc:type
           rdf:resource="http://purl.org/dc/dcmitype/StillImage" />
        <dc:title></dc:title>
      </cc:Work>
    </rdf:RDF>
  </metadata>
  <g
     transform="translate(0,-280.06667)"
     id="layer1">
    <path
       style="color:#000000;display:inline;overflow:visible;visibility:visible;opacity:1;vector-effect:none;fill:#555761;fill-opacity:1;fill-rule:nonzero;stroke:none;stroke-width:0.26458332;stroke-linecap:butt;stroke-linejoin:miter;stroke-miterlimit:4;stroke-dasharray:none;stroke-dashoffset:0;stroke-opacity:1;marker:none;paint-order:normal;enable-background:accumulate"
       d="m 2.2489583,281.125 c -0.6596062,0 -1.190625,0.53102 -1.190625,1.19063 v 12.43541 c 0,0.65961 0.5310188,1.19063 1.190625,1.19063 H 14.684375 c 0.659606,0 1.190625,-0.53102 1.190625,-1.19063 v -12.43541 c 0,-0.65961 -0.531019,-1.19063 -1.190625,-1.19063 z m 0,0.26458 H 14.684375 c 0.513027,0 0.926041,0.41302 0.926041,0.92605 v 12.43541 c 0,0.51303 -0.413014,0.92604 -0.926041,0.92604 H 2.2489583 c -0.513027,0 -0.9260416,-0.41301 -0.9260416,-0.92604 v -12.43541 c 0,-0.51303 0.4130146,-0.92605 0.9260416,-0.92605 z"
       id="rect5505-6" />
    <rect
       width="14.2875"
       height="14.2875"
       rx="0.92604166"
       ry="0.92604166"
       x="1.3229166"
       y="281.38959"
       id="rect5505-6-7"
       style="color:#000000;display:inline;overflow:visible;visibility:visible;opacity:0.1;vector-effect:none;fill:#555761;fill-opacity:1;fill-rule:nonzero;stroke:none;stroke-width:0.26458332;stroke-linecap:round;stroke-linejoin:round;stroke-miterlimit:4;stroke-dasharray:none;stroke-dashoffset:0;stroke-opacity:1;marker:none;paint-order:normal;enable-background:accumulate" />
  </g>
</svg>
