<?xml version="1.0" encoding="UTF-8" standalone="no"?>
<svg
   version="1.1"
   id="svg4729"
   height="12"
   width="54"
   xmlns:xlink="http://www.w3.org/1999/xlink"
   xmlns="http://www.w3.org/2000/svg"
   xmlns:svg="http://www.w3.org/2000/svg"
   xmlns:rdf="http://www.w3.org/1999/02/22-rdf-syntax-ns#"
   xmlns:cc="http://creativecommons.org/ns#"
   xmlns:dc="http://purl.org/dc/elements/1.1/">
  <defs
     id="defs4731">
    <linearGradient
       id="linearGradient5063">
      <stop
         id="stop5055"
         style="stop-color:#ffffff;stop-opacity:1;"
         offset="0" />
      <stop
         offset="0.19461967"
         style="stop-color:#ffffff;stop-opacity:0.23529412;"
         id="stop5057" />
      <stop
         id="stop5059"
         style="stop-color:#ffffff;stop-opacity:0.15686275;"
         offset="0.95056331" />
      <stop
         id="stop5061"
         style="stop-color:#ffffff;stop-opacity:0.39215687;"
         offset="1" />
    </linearGradient>
    <filter
       height="1.588"
       y="-0.29400001"
       width="1.1147317"
       x="-0.057365855"
       id="filter1523"
       style="color-interpolation-filters:sRGB">
      <feGaussianBlur
         id="feGaussianBlur1525"
         stdDeviation="0.98" />
    </filter>
    <linearGradient
       xlink:href="#linearGradient5063"
       id="linearGradient5053"
       x1="438.65228"
       y1="466.57907"
       x2="438.65228"
       y2="473.27878"
       gradientUnits="userSpaceOnUse"
       gradientTransform="matrix(0.98039219,0,0,0.9,-380.08409,-412.00433)" />
  </defs>
  <metadata
     id="metadata4734">
    <rdf:RDF>
      <cc:Work
         rdf:about="">
        <dc:format>image/svg+xml</dc:format>
        <dc:type
           rdf:resource="http://purl.org/dc/dcmitype/StillImage" />
      </cc:Work>
    </rdf:RDF>
  </metadata>
  <path
     id="rect857"
     d="M 52,12 V 8.56912 C 52,7.55867 51.37995,7 50.29324,7 H 2.67845 C 1.59174,7 1,7.61529 1,8.62574 V 12"
     style="color:#000000;display:inline;overflow:visible;visibility:visible;opacity:1;vector-effect:none;fill:#4d4d4d;fill-opacity:1;fill-rule:nonzero;stroke:none;stroke-width:0.975822;stroke-linecap:butt;stroke-linejoin:miter;stroke-miterlimit:4;stroke-dasharray:none;stroke-dashoffset:0;stroke-opacity:0.502164;marker:none;enable-background:accumulate" />
  <path
     id="rect857-2"
     d="M 52.5,11.9834 V 8.50064 c 0,-1.10801 -0.89199,-2 -2,-2 h -48 c -1.10801,0 -2,0.89199 -2,2 v 3.48276"
     style="color:#000000;display:inline;overflow:visible;visibility:visible;opacity:0.745;vector-effect:none;fill:none;fill-opacity:1;fill-rule:nonzero;stroke:#000000;stroke-width:0.999922;stroke-linecap:butt;stroke-linejoin:miter;stroke-miterlimit:4;stroke-dasharray:none;stroke-dashoffset:0;stroke-opacity:1;marker:none;enable-background:accumulate" />
  <path
     style="opacity:0.1;vector-effect:none;fill:#000000;fill-opacity:1;stroke:none;stroke-width:1;stroke-linecap:round;stroke-linejoin:round;stroke-miterlimit:4;stroke-dasharray:none;stroke-dashoffset:0;stroke-opacity:1;marker:none;paint-order:normal;filter:url(#filter1523)"
     d="M 7.5,3.001 C 6.66899,3.001 6,3.66999 6,4.501 v 5 c 0,0.83101 0.66899,1.5 1.5,1.5 h 5 c 0.83101,0 1.5,-0.66899 1.5,-1.5 v -5 c 0,-0.83101 -0.66899,-1.5 -1.5,-1.5 z m 11,0 c -0.83101,0 -1.5,0.66899 -1.5,1.5 v 5 c 0,0.83101 0.66899,1.5 1.5,1.5 h 5 c 0.83101,0 1.5,-0.66899 1.5,-1.5 v -5 c 0,-0.83101 -0.66899,-1.5 -1.5,-1.5 z m 11,0 c -0.83101,0 -1.5,0.66899 -1.5,1.5 v 5 c 0,0.83101 0.66899,1.5 1.5,1.5 h 5 c 0.83101,0 1.5,-0.66899 1.5,-1.5 v -5 c 0,-0.83101 -0.66899,-1.5 -1.5,-1.5 z m 11,0 c -0.83101,0 -1.5,0.66899 -1.5,1.5 v 5 c 0,0.83101 0.66899,1.5 1.5,1.5 h 5 c 0.83101,0 1.5,-0.66899 1.5,-1.5 v -5 c 0,-0.83101 -0.66899,-1.5 -1.5,-1.5 z"
     id="rect1343" />
  <path
     id="rect857-0"
     d="M 51.50002,12 V 8.91221 C 51.50002,8.0028 50.89212,7.5 49.82672,7.5 H 3.14556 C 2.08015,7.5 1.50001,8.05376 1.50001,8.96317 V 12"
     style="color:#000000;display:inline;overflow:visible;visibility:visible;opacity:0.15;vector-effect:none;fill:none;fill-opacity:1;fill-rule:nonzero;stroke:url(#linearGradient5053);stroke-width:1;stroke-linecap:butt;stroke-linejoin:miter;stroke-miterlimit:4;stroke-dasharray:none;stroke-dashoffset:0;stroke-opacity:1;marker:none;enable-background:accumulate" />
  <rect
     ry="1.0000445"
     rx="1.0000445"
     y="2.4999542"
     x="6.499958"
     height="7.0000782"
     width="7.0000782"
     id="rect863"
     style="color:#000000;display:inline;overflow:visible;visibility:visible;opacity:0.15;vector-effect:none;fill:none;fill-opacity:1;fill-rule:nonzero;stroke:#000000;stroke-width:0.999922;stroke-linecap:butt;stroke-linejoin:miter;stroke-miterlimit:4;stroke-dasharray:none;stroke-dashoffset:0;stroke-opacity:1;marker:none;enable-background:accumulate" />
  <rect
     style="color:#000000;display:inline;overflow:visible;visibility:visible;opacity:0.15;vector-effect:none;fill:none;fill-opacity:1;fill-rule:nonzero;stroke:#000000;stroke-width:0.999922;stroke-linecap:butt;stroke-linejoin:miter;stroke-miterlimit:4;stroke-dasharray:none;stroke-dashoffset:0;stroke-opacity:1;marker:none;enable-background:accumulate"
     id="rect869"
     width="7.0000782"
     height="7.0000782"
     x="17.499958"
     y="2.4999542"
     rx="1.0000445"
     ry="1.0000445" />
  <rect
     ry="1.0000445"
     rx="1.0000445"
     y="2.4999542"
     x="39.499992"
     height="7.0000782"
     width="7.0000782"
     id="rect875"
     style="color:#000000;display:inline;overflow:visible;visibility:visible;opacity:0.15;vector-effect:none;fill:none;fill-opacity:1;fill-rule:nonzero;stroke:#000000;stroke-width:0.999922;stroke-linecap:butt;stroke-linejoin:miter;stroke-miterlimit:4;stroke-dasharray:none;stroke-dashoffset:0;stroke-opacity:1;marker:none;enable-background:accumulate" />
  <rect
     style="color:#000000;display:inline;overflow:visible;visibility:visible;opacity:0.15;vector-effect:none;fill:none;fill-opacity:1;fill-rule:nonzero;stroke:#000000;stroke-width:0.999922;stroke-linecap:butt;stroke-linejoin:miter;stroke-miterlimit:4;stroke-dasharray:none;stroke-dashoffset:0;stroke-opacity:1;marker:none;enable-background:accumulate"
     id="rect881"
     width="7.0000782"
     height="7.0000782"
     x="28.499989"
     y="2.4999542"
     rx="1.0000445"
     ry="1.0000445" />
  <rect
     ry="0.85717142"
     rx="0.85717142"
     y="3.0000153"
     x="6.9999886"
     height="6"
     width="6"
     id="rect863-1"
     style="color:#000000;display:inline;overflow:visible;visibility:visible;opacity:1;vector-effect:none;fill:#fafafa;fill-opacity:1;fill-rule:nonzero;stroke:none;stroke-width:0.857066;stroke-linecap:butt;stroke-linejoin:miter;stroke-miterlimit:4;stroke-dasharray:none;stroke-dashoffset:0;stroke-opacity:1;marker:none;enable-background:accumulate" />
  <rect
     ry="0.85717142"
     rx="0.85717142"
     y="3.0000153"
     x="17.999989"
     height="6"
     width="6"
     id="rect863-1-8"
     style="color:#000000;display:inline;overflow:visible;visibility:visible;opacity:1;vector-effect:none;fill:#fafafa;fill-opacity:1;fill-rule:nonzero;stroke:none;stroke-width:0.857066;stroke-linecap:butt;stroke-linejoin:miter;stroke-miterlimit:4;stroke-dasharray:none;stroke-dashoffset:0;stroke-opacity:1;marker:none;enable-background:accumulate" />
  <rect
     ry="0.85717142"
     rx="0.85717142"
     y="3.0000153"
     x="28.999989"
     height="6"
     width="6"
     id="rect863-1-4"
     style="color:#000000;display:inline;overflow:visible;visibility:visible;opacity:1;vector-effect:none;fill:#fafafa;fill-opacity:1;fill-rule:nonzero;stroke:none;stroke-width:0.857066;stroke-linecap:butt;stroke-linejoin:miter;stroke-miterlimit:4;stroke-dasharray:none;stroke-dashoffset:0;stroke-opacity:1;marker:none;enable-background:accumulate" />
  <rect
     ry="0.85717142"
     rx="0.85717142"
     y="3.0000153"
     x="39.999992"
     height="6"
     width="6"
     id="rect863-1-8-5"
     style="color:#000000;display:inline;overflow:visible;visibility:visible;opacity:1;vector-effect:none;fill:#fafafa;fill-opacity:1;fill-rule:nonzero;stroke:none;stroke-width:0.857066;stroke-linecap:butt;stroke-linejoin:miter;stroke-miterlimit:4;stroke-dasharray:none;stroke-dashoffset:0;stroke-opacity:1;marker:none;enable-background:accumulate" />
</svg>
