<?xml version="1.0" encoding="UTF-8" standalone="no"?>
<svg
   width="54"
   height="12"
   id="svg4729"
   version="1.1"
   xmlns="http://www.w3.org/2000/svg"
   xmlns:svg="http://www.w3.org/2000/svg"
   xmlns:rdf="http://www.w3.org/1999/02/22-rdf-syntax-ns#"
   xmlns:cc="http://creativecommons.org/ns#"
   xmlns:dc="http://purl.org/dc/elements/1.1/">
  <defs
     id="defs4731">
    <filter
       style="color-interpolation-filters:sRGB"
       id="filter1523"
       x="-0.057365855"
       width="1.1147317"
       y="-0.29400001"
       height="1.588">
      <feGaussianBlur
         stdDeviation="0.98"
         id="feGaussianBlur1525" />
    </filter>
  </defs>
  <metadata
     id="metadata4734">
    <rdf:RDF>
      <cc:Work
         rdf:about="">
        <dc:format>image/svg+xml</dc:format>
        <dc:type
           rdf:resource="http://purl.org/dc/dcmitype/StillImage" />
      </cc:Work>
    </rdf:RDF>
  </metadata>
  <path
     style="color:#000000;display:inline;overflow:visible;visibility:visible;opacity:0.95;fill:#fafafa;fill-opacity:1;fill-rule:nonzero;stroke:none;stroke-width:0.945734;stroke-linecap:butt;stroke-linejoin:miter;stroke-miterlimit:4;stroke-dasharray:none;stroke-dashoffset:0;stroke-opacity:1;marker:none;enable-background:accumulate"
     d="M 52,12 V 8.8239 C 52,7.81345 51.12517,7 50.03846,7 H 2.96154 C 1.87483,7 1,7.81345 1,8.8239 V 12"
     id="rect857" />
  <path
     style="color:#000000;display:inline;overflow:visible;visibility:visible;opacity:0.15;vector-effect:none;fill:none;fill-opacity:1;fill-rule:nonzero;stroke:#000000;stroke-width:0.999922;stroke-linecap:butt;stroke-linejoin:miter;stroke-miterlimit:4;stroke-dasharray:none;stroke-dashoffset:0;stroke-opacity:1;marker:none;enable-background:accumulate"
     d="M 52.5,11.9834 V 8.50064 c 0,-1.10801 -0.89199,-2 -2,-2 h -48 c -1.10801,0 -2,0.89199 -2,2 v 3.48276"
     id="rect857-2" />
  <path
     id="rect1343"
     d="M 7.5,3.001 C 6.66899,3.001 6,3.66999 6,4.501 v 5 c 0,0.83101 0.66899,1.5 1.5,1.5 h 5 c 0.83101,0 1.5,-0.66899 1.5,-1.5 v -5 c 0,-0.83101 -0.66899,-1.5 -1.5,-1.5 z m 11,0 c -0.83101,0 -1.5,0.66899 -1.5,1.5 v 5 c 0,0.83101 0.66899,1.5 1.5,1.5 h 5 c 0.83101,0 1.5,-0.66899 1.5,-1.5 v -5 c 0,-0.83101 -0.66899,-1.5 -1.5,-1.5 z m 11,0 c -0.83101,0 -1.5,0.66899 -1.5,1.5 v 5 c 0,0.83101 0.66899,1.5 1.5,1.5 h 5 c 0.83101,0 1.5,-0.66899 1.5,-1.5 v -5 c 0,-0.83101 -0.66899,-1.5 -1.5,-1.5 z m 11,0 c -0.83101,0 -1.5,0.66899 -1.5,1.5 v 5 c 0,0.83101 0.66899,1.5 1.5,1.5 h 5 c 0.83101,0 1.5,-0.66899 1.5,-1.5 v -5 c 0,-0.83101 -0.66899,-1.5 -1.5,-1.5 z"
     style="opacity:0.1;vector-effect:none;fill:#000000;fill-opacity:1;stroke:none;stroke-width:1;stroke-linecap:round;stroke-linejoin:round;stroke-miterlimit:4;stroke-dasharray:none;stroke-dashoffset:0;stroke-opacity:1;marker:none;paint-order:normal;filter:url(#filter1523)" />
  <rect
     style="color:#000000;display:inline;overflow:visible;visibility:visible;opacity:0.15;vector-effect:none;fill:none;fill-opacity:1;fill-rule:nonzero;stroke:#000000;stroke-width:0.999922;stroke-linecap:butt;stroke-linejoin:miter;stroke-miterlimit:4;stroke-dasharray:none;stroke-dashoffset:0;stroke-opacity:1;marker:none;enable-background:accumulate"
     id="rect863"
     width="7.0000782"
     height="7.0000782"
     x="6.499958"
     y="2.4999542"
     rx="1.0000445"
     ry="1.0000445" />
  <rect
     ry="1.0000445"
     rx="1.0000445"
     y="2.4999542"
     x="17.499958"
     height="7.0000782"
     width="7.0000782"
     id="rect869"
     style="color:#000000;display:inline;overflow:visible;visibility:visible;opacity:0.15;vector-effect:none;fill:none;fill-opacity:1;fill-rule:nonzero;stroke:#000000;stroke-width:0.999922;stroke-linecap:butt;stroke-linejoin:miter;stroke-miterlimit:4;stroke-dasharray:none;stroke-dashoffset:0;stroke-opacity:1;marker:none;enable-background:accumulate" />
  <rect
     style="color:#000000;display:inline;overflow:visible;visibility:visible;opacity:0.15;vector-effect:none;fill:none;fill-opacity:1;fill-rule:nonzero;stroke:#000000;stroke-width:0.999922;stroke-linecap:butt;stroke-linejoin:miter;stroke-miterlimit:4;stroke-dasharray:none;stroke-dashoffset:0;stroke-opacity:1;marker:none;enable-background:accumulate"
     id="rect875"
     width="7.0000782"
     height="7.0000782"
     x="39.499992"
     y="2.4999542"
     rx="1.0000445"
     ry="1.0000445" />
  <rect
     ry="1.0000445"
     rx="1.0000445"
     y="2.4999542"
     x="28.499989"
     height="7.0000782"
     width="7.0000782"
     id="rect881"
     style="color:#000000;display:inline;overflow:visible;visibility:visible;opacity:0.15;vector-effect:none;fill:none;fill-opacity:1;fill-rule:nonzero;stroke:#000000;stroke-width:0.999922;stroke-linecap:butt;stroke-linejoin:miter;stroke-miterlimit:4;stroke-dasharray:none;stroke-dashoffset:0;stroke-opacity:1;marker:none;enable-background:accumulate" />
  <rect
     style="color:#000000;display:inline;overflow:visible;visibility:visible;opacity:1;vector-effect:none;fill:#fafafa;fill-opacity:1;fill-rule:nonzero;stroke:none;stroke-width:0.857066;stroke-linecap:butt;stroke-linejoin:miter;stroke-miterlimit:4;stroke-dasharray:none;stroke-dashoffset:0;stroke-opacity:1;marker:none;enable-background:accumulate"
     id="rect863-1"
     width="6"
     height="6"
     x="6.9999886"
     y="3.0000153"
     rx="0.85717142"
     ry="0.85717142" />
  <rect
     style="color:#000000;display:inline;overflow:visible;visibility:visible;opacity:1;vector-effect:none;fill:#fafafa;fill-opacity:1;fill-rule:nonzero;stroke:none;stroke-width:0.857066;stroke-linecap:butt;stroke-linejoin:miter;stroke-miterlimit:4;stroke-dasharray:none;stroke-dashoffset:0;stroke-opacity:1;marker:none;enable-background:accumulate"
     id="rect863-1-8"
     width="6"
     height="6"
     x="17.999989"
     y="3.0000153"
     rx="0.85717142"
     ry="0.85717142" />
  <rect
     style="color:#000000;display:inline;overflow:visible;visibility:visible;opacity:1;vector-effect:none;fill:#fafafa;fill-opacity:1;fill-rule:nonzero;stroke:none;stroke-width:0.857066;stroke-linecap:butt;stroke-linejoin:miter;stroke-miterlimit:4;stroke-dasharray:none;stroke-dashoffset:0;stroke-opacity:1;marker:none;enable-background:accumulate"
     id="rect863-1-4"
     width="6"
     height="6"
     x="28.999989"
     y="3.0000153"
     rx="0.85717142"
     ry="0.85717142" />
  <rect
     style="color:#000000;display:inline;overflow:visible;visibility:visible;opacity:1;vector-effect:none;fill:#fafafa;fill-opacity:1;fill-rule:nonzero;stroke:none;stroke-width:0.857066;stroke-linecap:butt;stroke-linejoin:miter;stroke-miterlimit:4;stroke-dasharray:none;stroke-dashoffset:0;stroke-opacity:1;marker:none;enable-background:accumulate"
     id="rect863-1-8-5"
     width="6"
     height="6"
     x="39.999992"
     y="3.0000153"
     rx="0.85717142"
     ry="0.85717142" />
</svg>
