<?xml version="1.0" encoding="UTF-8" standalone="no"?>
<svg
   version="1.1"
   width="32"
   height="32"
   id="svg6860"
   xmlns="http://www.w3.org/2000/svg"
   xmlns:svg="http://www.w3.org/2000/svg"
   xmlns:rdf="http://www.w3.org/1999/02/22-rdf-syntax-ns#"
   xmlns:cc="http://creativecommons.org/ns#"
   xmlns:dc="http://purl.org/dc/elements/1.1/">
  <defs
     id="defs6862" />
  <metadata
     id="metadata6865">
    <rdf:RDF>
      <cc:Work
         rdf:about="">
        <dc:format>image/svg+xml</dc:format>
        <dc:type
           rdf:resource="http://purl.org/dc/dcmitype/StillImage" />
      </cc:Work>
    </rdf:RDF>
  </metadata>
  <rect
     style="opacity:0.1;fill:#555761;stroke-width:0.999997;stroke-linecap:round;-inkscape-stroke:none;stop-color:#000000"
     id="rect347-3"
     width="26"
     height="25.999998"
     x="3"
     y="3.000001"
     rx="2.5"
     ry="2.5" />
  <path
     id="path1047-9"
     style="font-variation-settings:normal;opacity:1;vector-effect:none;fill:#555761;fill-opacity:1;stroke:none;stroke-width:1;stroke-linecap:butt;stroke-linejoin:miter;stroke-miterlimit:4;stroke-dasharray:none;stroke-dashoffset:0;stroke-opacity:1;marker:none;stop-color:#000000;stop-opacity:1"
     d="M 5.5,2 C 3.5610038,2 2,3.5610038 2,5.5 v 21 C 2,28.438996 3.5610038,30 5.5,30 h 21 C 28.438996,30 30,28.438996 30,26.5 V 5.5 C 30,3.5610038 28.438996,2 26.5,2 Z m 0,1 h 21 C 27.884998,3 29,4.1150028 29,5.5 v 21 C 29,27.884998 27.884998,29 26.5,29 H 5.5 C 4.1150028,29 3,27.884998 3,26.5 V 5.5 C 3,4.1150028 4.1150028,3 5.5,3 Z" />
</svg>
