<?xml version="1.0" encoding="UTF-8" standalone="no"?>
<svg
   version="1.1"
   width="48"
   height="48"
   id="svg6649"
   xmlns="http://www.w3.org/2000/svg"
   xmlns:svg="http://www.w3.org/2000/svg"
   xmlns:rdf="http://www.w3.org/1999/02/22-rdf-syntax-ns#"
   xmlns:cc="http://creativecommons.org/ns#"
   xmlns:dc="http://purl.org/dc/elements/1.1/">
  <defs
     id="defs6651" />
  <metadata
     id="metadata6654">
    <rdf:RDF>
      <cc:Work
         rdf:about="">
        <dc:format>image/svg+xml</dc:format>
        <dc:type
           rdf:resource="http://purl.org/dc/dcmitype/StillImage" />
      </cc:Work>
    </rdf:RDF>
  </metadata>
  <rect
     style="opacity:0.1;fill:#555761;stroke-width:0.999997;stroke-linecap:round;-inkscape-stroke:none;stop-color:#000000"
     id="rect347-3"
     width="38"
     height="38"
     x="5"
     y="5.9999981"
     rx="3.5"
     ry="3.5" />
  <path
     id="rect347"
     style="opacity:1;fill:#555761;stroke-width:1;stroke-linecap:round;-inkscape-stroke:none;stop-color:#000000"
     d="M 8.5,5 C 6.007005,5 4,7.007005 4,9.5 v 31 C 4,42.992996 6.007005,45 8.5,45 h 31 C 41.992996,45 44,42.992996 44,40.5 V 9.5 C 44,7.007005 41.992996,5 39.5,5 Z m 0,1 h 31 C 41.438996,6 43,7.5610038 43,9.5 v 31 C 43,42.438996 41.438996,44 39.5,44 H 8.5 C 6.5610038,44 5,42.438996 5,40.5 V 9.5 C 5,7.5610038 6.5610038,6 8.5,6 Z" />
</svg>
