<?xml version="1.0" encoding="UTF-8" standalone="no"?>
<svg
   version="1.1"
   id="svg4332"
   height="64px"
   width="64px"
   xmlns="http://www.w3.org/2000/svg"
   xmlns:svg="http://www.w3.org/2000/svg"
   xmlns:rdf="http://www.w3.org/1999/02/22-rdf-syntax-ns#"
   xmlns:cc="http://creativecommons.org/ns#"
   xmlns:dc="http://purl.org/dc/elements/1.1/">
  <defs
     id="defs4334" />
  <metadata
     id="metadata4337">
    <rdf:RDF>
      <cc:Work
         rdf:about="">
        <dc:format>image/svg+xml</dc:format>
        <dc:type
           rdf:resource="http://purl.org/dc/dcmitype/StillImage" />
      </cc:Work>
    </rdf:RDF>
  </metadata>
  <rect
     style="opacity:0.1;fill:#555761;stroke-width:0.999998;stroke-linecap:round;-inkscape-stroke:none;stop-color:#000000"
     id="rect347-3-6"
     width="53.999996"
     height="53.999992"
     x="5.0000019"
     y="5.0000038"
     rx="5.4999995"
     ry="5.4999995" />
  <path
     id="rect347"
     style="opacity:1;fill:#555761;stroke-width:1;stroke-linecap:round;-inkscape-stroke:none;stop-color:#000000"
     d="M 10.5,4 C 6.8990072,4 4,6.8990072 4,10.5 v 43 c 0,3.600992 2.8990072,6.5 6.5,6.5 h 43 c 3.600992,0 6.5,-2.899008 6.5,-6.5 v -43 C 60,6.8990072 57.100992,4 53.5,4 Z m 0,1 h 43 c 3.046994,0 5.5,2.4530063 5.5,5.5 v 43 c 0,3.046994 -2.453006,5.5 -5.5,5.5 h -43 C 7.4530063,59 5,56.546994 5,53.5 v -43 C 5,7.4530063 7.4530063,5 10.5,5 Z" />
</svg>
